<svg xmlns="http://www.w3.org/2000/svg" width="650" height="150" viewBox="278 328 650 150">
<g>
<path d="M 404.00 454.58 C370.73,446.17 342.15,438.96 340.50,438.56 C308.15,430.79 285.71,424.88 284.53,423.83 C283.78,423.16 283.69,405.63 284.00,391.54 L 284.00 397.37 C284.00,410.18 284.28,420.95 284.63,421.30 C284.98,421.65 286.18,421.44 287.30,420.84 C289.64,419.59 313.54,415.18 322.50,414.34 C326.38,413.98 335.58,414.73 348.50,416.46 C383.32,421.13 452.29,430.95 452.63,431.30 C452.81,431.48 456.17,439.47 460.08,449.06 C464.00,458.65 467.62,467.29 468.14,468.25 C468.43,468.80 468.80,469.29 469.13,469.61 C468.57,469.89 468.06,469.94 467.50,469.93 C465.85,469.89 437.27,462.99 404.00,454.58 ZM 301.82 369.81 C305.27,369.03 308.97,368.18 312.00,367.48 C315.37,366.70 320.21,365.61 324.97,364.56 C321.27,365.38 317.94,366.14 316.00,366.61 C312.68,367.40 306.54,368.79 301.82,369.81 ZM 487.25 445.75 C481.04,454.73 477.09,460.40 474.42,463.97 C477.64,459.52 482.25,452.99 487.25,445.75 Z" fill="rgba(23,9,86,1)"/>
<path d="M 356.81 417.58 C353.88,417.18 351.09,416.81 348.50,416.46 C335.58,414.73 326.38,413.98 322.50,414.34 C313.54,415.18 289.64,419.59 287.30,420.84 C286.18,421.44 284.98,421.65 284.63,421.30 C284.28,420.95 284.00,410.18 284.00,397.37 L 284.00 374.08 L 288.00 373.00 C290.19,372.41 295.93,371.08 300.75,370.05 C301.10,369.97 301.46,369.89 301.83,369.81 C298.70,370.52 295.78,371.18 293.75,371.64 C289.49,372.59 286.00,373.62 286.01,373.93 C286.01,374.24 293.77,376.93 303.26,379.90 C312.74,382.87 320.92,385.68 321.43,386.14 C321.95,386.59 322.63,392.57 322.96,399.43 C323.28,406.28 323.82,412.15 324.15,412.49 C324.61,412.94 327.23,413.43 356.81,417.58 ZM 451.08 431.01 C445.88,430.15 428.25,427.59 407.94,424.71 C429.75,427.75 448.04,430.34 449.66,430.63 C450.20,430.72 450.66,430.83 451.08,431.01 ZM 468.14 468.25 C467.97,467.93 467.45,466.76 466.70,465.00 C467.78,467.43 468.94,469.45 469.50,469.90 C469.09,469.66 468.54,469.01 468.14,468.25 ZM 487.25 445.75 C478.04,459.08 470.18,469.99 469.79,470.00 C469.76,470.00 469.74,469.99 469.72,469.99 C470.36,469.69 478.17,458.89 487.25,445.75 ZM 457.98 443.94 C457.01,441.60 456.12,439.44 455.36,437.61 C456.07,439.27 456.92,441.34 457.98,443.94 ZM 324.97 364.56 C328.09,363.86 331.48,363.12 334.50,362.46 C341.10,361.04 349.88,359.05 354.00,358.04 C349.88,359.05 341.10,361.05 334.50,362.47 C331.75,363.06 328.38,363.80 324.97,364.56 Z" fill="rgba(75,16,144,1)"/>
<path d="M 466.59 464.75 C465.32,461.86 461.70,453.13 458.55,445.34 C453.08,431.84 452.67,431.16 449.66,430.63 C447.92,430.32 426.92,427.35 403.00,424.02 C329.51,413.81 324.78,413.11 324.15,412.49 C323.82,412.15 323.28,406.28 322.96,399.43 C322.63,392.57 321.95,386.59 321.43,386.14 C321.08,385.82 317.12,384.40 311.60,382.58 L 322.50 386.02 L 330.32 385.03 C334.62,384.48 342.27,383.38 347.32,382.58 C352.37,381.79 361.00,380.63 366.50,380.01 C375.44,379.01 408.83,374.57 438.18,370.49 C444.06,369.67 449.79,369.00 450.93,369.00 C452.98,369.00 453.00,369.32 453.00,400.36 L 453.00 431.72 L 460.10 449.11 C462.71,455.49 465.18,461.45 466.70,464.99 C466.66,464.91 466.62,464.83 466.59,464.75 ZM 843.71 426.38 C843.32,425.99 843.00,414.72 843.00,401.33 L 843.00 377.00 L 856.00 377.00 L 856.00 383.37 L 858.75 380.81 C862.93,376.91 865.35,376.00 871.53,376.00 C877.69,376.00 883.49,378.18 885.04,381.08 C885.95,382.78 886.36,382.69 891.13,379.73 C895.26,377.16 897.51,376.49 902.87,376.22 C911.41,375.79 915.62,377.87 918.71,384.07 C920.74,388.13 920.94,390.09 921.09,407.50 L 921.25 426.50 L 908.50 426.50 L 908.20 409.50 C907.97,396.70 907.53,391.95 906.43,390.27 C903.21,385.33 894.07,386.26 890.28,391.90 C888.15,395.08 888.00,396.30 888.00,411.03 L 888.00 426.76 L 881.75 426.63 L 875.50 426.50 L 875.00 408.85 C874.56,393.32 874.27,390.95 872.60,389.10 C869.08,385.23 859.87,387.06 857.21,392.16 C856.44,393.64 855.91,400.37 855.75,410.50 L 855.50 426.50 L 849.96 426.79 C846.91,426.96 844.10,426.77 843.71,426.38 ZM 795.00 426.88 C791.73,425.57 788.21,422.23 786.17,418.50 C784.86,416.09 784.46,411.70 784.17,396.25 L 783.82 377.00 L 798.00 377.00 L 798.00 411.15 L 800.92 414.08 C804.17,417.33 807.28,417.75 812.36,415.62 C817.93,413.30 819.00,409.50 819.00,392.10 L 819.00 377.00 L 832.03 377.00 L 831.50 426.50 L 827.60 426.82 C821.48,427.32 819.00,426.36 819.00,423.48 C819.00,420.45 818.54,420.40 815.71,423.12 C811.00,427.63 801.30,429.39 795.00,426.88 ZM 653.50 426.59 C649.64,424.87 646.49,421.42 644.55,416.77 C643.34,413.89 643.00,409.05 643.00,395.03 L 643.00 377.00 L 655.87 377.00 L 656.18 394.08 L 656.50 411.17 L 659.89 414.20 C662.88,416.86 663.83,417.17 667.76,416.72 C670.80,416.38 673.08,415.38 674.87,413.59 C677.48,410.98 677.50,410.84 677.71,394.23 L 677.93 377.50 L 684.48 377.20 L 691.04 376.91 L 690.77 401.70 L 690.50 426.50 L 684.50 426.50 C679.55,426.50 678.50,426.21 678.49,424.82 C678.47,422.18 677.17,421.54 675.26,423.22 C669.92,427.90 659.93,429.45 653.50,426.59 ZM 572.75 426.33 C571.16,425.90 571.00,424.08 571.00,406.43 L 571.00 387.00 L 562.00 387.00 L 562.00 377.11 L 570.50 376.50 L 571.00 368.80 C571.46,361.68 571.76,360.84 574.96,357.54 C578.91,353.47 583.15,352.01 591.00,352.02 C600.81,352.03 602.14,353.13 600.37,359.75 C599.84,361.73 599.12,362.00 594.34,362.00 C586.89,362.00 584.00,364.78 584.00,371.95 L 584.00 377.00 L 599.11 377.00 L 598.80 381.75 L 598.50 386.50 L 591.27 386.79 L 584.04 387.09 L 583.77 406.79 L 583.50 426.50 L 579.00 426.66 C576.53,426.74 573.71,426.60 572.75,426.33 ZM 705.50 426.21 L 700.50 424.50 L 700.20 418.75 C700.04,415.59 700.17,413.00 700.49,413.00 C700.81,413.00 702.86,413.91 705.03,415.01 C709.96,417.53 719.85,418.68 722.83,417.09 C725.27,415.79 725.84,410.91 723.75,409.26 C723.06,408.72 719.14,407.27 715.04,406.05 C709.43,404.37 706.64,402.88 703.79,400.02 C700.37,396.61 700.00,395.72 700.00,391.02 C700.00,384.45 702.61,380.52 708.72,377.91 C714.18,375.56 726.43,375.32 731.53,377.45 C734.84,378.83 735.00,379.13 735.00,383.95 C735.00,386.73 734.66,389.00 734.25,388.99 C733.84,388.98 731.29,388.31 728.59,387.49 C719.71,384.79 712.00,385.94 712.00,389.96 C712.00,393.06 714.56,394.75 723.29,397.41 C734.55,400.84 737.50,403.87 737.50,411.99 C737.50,419.08 735.41,422.47 728.98,425.75 C723.52,428.54 712.94,428.75 705.50,426.21 ZM 757.19 425.98 C751.45,422.47 750.05,417.64 750.02,401.25 L 750.00 387.00 L 742.00 387.00 L 742.00 377.00 L 750.00 377.00 L 750.00 365.08 L 755.18 363.54 C759.10,362.37 761.02,361.77 762.01,362.47 C762.99,363.18 763.04,365.19 763.21,369.25 L 763.50 376.50 L 776.50 377.50 L 776.50 386.50 L 769.67 386.80 L 762.84 387.09 L 763.17 400.14 C763.49,412.64 763.60,413.27 765.98,415.19 C767.83,416.68 769.43,417.07 772.17,416.70 C776.32,416.15 777.00,416.98 777.00,422.61 C777.00,425.38 776.50,426.24 774.43,427.02 C769.91,428.75 760.83,428.19 757.19,425.98 ZM 606.00 377.00 L 618.00 377.00 L 618.00 383.09 L 621.97 379.90 C624.91,377.55 627.27,376.58 631.02,376.22 L 636.11 375.74 L 635.80 381.62 L 635.50 387.50 L 631.00 388.05 C620.72,389.29 619.67,391.29 619.02,411.00 L 618.50 426.50 L 612.25 426.80 L 606.00 427.10 L 606.00 377.00 ZM 286.05 373.98 C286.25,374.15 287.25,374.55 288.85,375.13 C287.26,374.55 286.25,374.15 286.05,373.98 ZM 469.50 469.90 C469.58,469.95 469.65,469.98 469.72,469.99 C469.71,469.99 469.70,470.00 469.69,470.00 C469.64,470.00 469.58,469.96 469.50,469.90 Z" fill="rgba(76,35,180,1)"/>
<path d="M 487.88 355.11 C479.06,342.94 471.21,333.00 470.41,333.00 C469.61,333.00 468.52,334.13 467.99,335.52 C467.47,336.90 463.88,344.94 460.02,353.39 L 453.00 368.75 L 453.00 400.24 C453.00,369.32 452.98,369.00 450.93,369.00 C449.79,369.00 444.06,369.67 438.18,370.49 C408.83,374.57 375.44,379.01 366.50,380.01 C361.00,380.63 352.37,381.79 347.32,382.58 C342.27,383.38 334.62,384.48 330.32,385.03 L 322.50 386.02 L 304.26 380.26 C294.22,377.09 286.01,374.24 286.01,373.93 C286.00,373.62 289.49,372.59 293.75,371.64 C298.01,370.69 306.23,368.82 312.00,367.48 C317.77,366.15 327.90,363.89 334.50,362.47 C341.10,361.05 349.88,359.05 354.00,358.04 C363.34,355.76 382.08,351.53 392.00,349.47 C396.12,348.62 404.00,346.84 409.50,345.52 C415.00,344.19 424.67,341.95 431.00,340.52 C437.33,339.09 448.37,336.51 455.55,334.78 C462.73,333.05 469.31,331.90 470.18,332.24 C471.04,332.57 479.01,342.86 487.88,355.11 Z" fill="rgba(112,64,211,1)"/>
<path d="M 468.14 468.25 C467.62,467.29 464.01,458.68 460.10,449.11 L 453.00 431.72 L 453.00 430.63 L 460.25 429.38 C464.24,428.69 475.25,426.74 484.73,425.06 C494.20,423.38 502.43,422.00 503.00,422.00 C503.70,422.00 503.95,414.68 503.77,399.80 L 503.50 377.60 L 479.00 372.86 C465.52,370.25 454.16,368.09 453.75,368.06 C453.34,368.03 453.00,382.09 453.00,399.32 L 453.00 368.75 L 460.02 353.39 C463.88,344.94 467.47,336.90 467.99,335.52 C468.52,334.13 469.61,333.00 470.41,333.00 C471.21,333.00 479.10,342.98 487.93,355.19 L 504.00 377.37 L 504.00 421.50 L 487.25 445.75 C478.04,459.08 470.18,469.99 469.79,470.00 C469.39,470.00 468.65,469.21 468.14,468.25 Z" fill="rgba(164,84,237,1)"/>
<path d="M 453.00 399.32 C453.00,382.09 453.34,368.03 453.75,368.06 C454.16,368.09 465.52,370.25 479.00,372.86 L 503.50 377.60 L 503.77 399.80 C503.95,414.68 503.70,422.00 503.00,422.00 C502.43,422.00 494.20,423.38 484.73,425.06 C475.25,426.74 464.24,428.69 460.25,429.38 L 453.00 430.63 L 453.00 399.32 Z" fill="rgba(210,185,254,1)"/>
</g>
</svg>